<svg width="289" height="302" viewBox="0 0 289 302" fill="none" xmlns="http://www.w3.org/2000/svg">
<g filter="url(#filter0_d)">
<path d="M108.802 280.258C93.6549 285.625 78.3612 288.104 62.0481 285.005C43.8654 281.549 28.0944 265.989 19.1832 250.471C15.8722 244.707 13.2363 238.267 13.5807 231.63C14.3822 216.298 28.8665 214.585 41.1614 217.065C48.0921 218.459 54.4559 221.634 60.7475 224.778C71.193 230.001 83.4458 232.57 92.8105 239.81C95.9529 242.246 98.3128 245.174 101.964 246.946C107.644 249.706 114.128 251.009 119.962 253.52C124.943 255.675 130.511 259.22 130.518 264.645C130.519 270.208 124.714 273.754 119.614 275.969C116.004 277.547 112.41 278.986 108.802 280.258Z" fill="url(#paint0_linear)"/>
<path d="M53.0501 82.4956C77.8631 45.9285 129.172 31.2462 170.761 44.9946C190.816 51.6276 207.623 65.4394 223.125 79.7773C236.789 92.4143 250.045 106.044 259.377 122.29C265.748 133.379 270.309 146.671 273.529 159.081C278.344 177.661 273.971 201.602 249.952 199.848C244.317 199.437 239.442 197.411 234.171 195.638C229.908 194.201 225.73 195.063 221.304 194.361C210.162 192.597 199.429 188.495 189.28 183.69C168.596 173.89 149.697 160.575 128.425 151.987C110.993 144.958 92.3767 141.329 73.5808 141.296C65.6512 141.283 57.3135 141.838 50.2203 138.292C32.7374 129.545 40.5993 105.958 47.1286 92.6903C48.8584 89.1561 50.8372 85.7492 53.0501 82.4956Z" fill="url(#paint1_linear)"/>
<path d="M247.597 88.015C251.682 91.7149 267.732 101.815 268.041 89.9624C268.114 87.0096 266.775 84.1425 264.952 81.98C262.867 79.4979 260.502 78.196 258.874 75.3042C256.881 71.8126 254.613 68.5311 252.099 65.502C246.959 59.1974 240.958 53.3722 233.676 50.7767C228.569 48.9585 219.922 49.4157 217.496 55.9612C213.962 65.4895 229.074 67.2354 233.683 70.7079C238.057 73.9947 240.534 79.6423 243.999 84.1307C245.094 85.546 246.298 86.8463 247.597 88.015Z" fill="url(#paint2_linear)"/>
<path d="M172.059 76.4252C180.712 81.5195 187.202 89.1448 195.091 95.286C208.225 105.509 226.228 107.6 241.29 114.71C256.648 121.963 268.245 133.236 273.488 149.483C280.262 170.455 280.906 195.395 275.151 216.955C268.813 240.687 253.929 256.451 232.168 266.964C210.419 277.471 186.326 282.374 162.296 283.386C159.977 283.485 157.662 283.539 155.338 283.554C103.135 283.857 33.6502 265.482 15.8773 209.404C15.7144 208.891 15.5583 208.379 15.4017 207.859C13.5704 201.611 12.4936 195.167 12.1944 188.663C11.0765 165.606 15.1118 140.157 23.1954 118.543C28.6323 103.991 40.3397 91.6869 52.6763 82.9199C70.009 70.6034 91.1575 67.4602 112.206 65.9824C127.793 64.8888 145.323 64.4892 160.063 70.4512C164.205 72.14 168.215 74.1369 172.059 76.4252Z" fill="url(#paint3_linear)"/>
</g>
<defs>
<filter id="filter0_d" x="0.918457" y="31.6726" width="288" height="269.938" filterUnits="userSpaceOnUse" color-interpolation-filters="sRGB">
<feFlood flood-opacity="0" result="BackgroundImageFix"/>
<feColorMatrix in="SourceAlpha" type="matrix" values="0 0 0 0 0 0 0 0 0 0 0 0 0 0 0 0 0 0 127 0"/>
<feOffset dy="4"/>
<feGaussianBlur stdDeviation="2"/>
<feColorMatrix type="matrix" values="0 0 0 0 0 0 0 0 0 0 0 0 0 0 0 0 0 0 0.25 0"/>
<feBlend mode="normal" in2="BackgroundImageFix" result="effect1_dropShadow"/>
<feBlend mode="normal" in="SourceGraphic" in2="effect1_dropShadow" result="shape"/>
</filter>
<linearGradient id="paint0_linear" x1="12.2362" y1="233.746" x2="27.9514" y2="288.313" gradientUnits="userSpaceOnUse">
<stop stop-color="#FFD0D0"/>
<stop offset="1" stop-color="#FFF8F8"/>
</linearGradient>
<linearGradient id="paint1_linear" x1="305.772" y1="87.8221" x2="129.881" y2="47.2066" gradientUnits="userSpaceOnUse">
<stop stop-color="#FFF8F8"/>
<stop offset="1" stop-color="#FFD0D0"/>
</linearGradient>
<linearGradient id="paint2_linear" x1="268.458" y1="89.7546" x2="208.112" y2="63.9798" gradientUnits="userSpaceOnUse">
<stop stop-color="#FFD0D0"/>
<stop offset="1" stop-color="#FFF7F7"/>
</linearGradient>
<linearGradient id="paint3_linear" x1="254.838" y1="259.726" x2="12.2439" y2="119.24" gradientUnits="userSpaceOnUse">
<stop stop-color="#FFCFCF"/>
<stop offset="1" stop-color="#FFF8F8"/>
</linearGradient>
</defs>
</svg>
